<svg width="668" height="468" viewBox="0 0 668 468" fill="none" xmlns="http://www.w3.org/2000/svg">
<path d="M334 467.333C534 467.333 667.333 234 667.333 234C667.333 234 534 0.666687 334 0.666687C134 0.666687 0.666504 234 0.666504 234C0.666504 234 134 467.333 334 467.333ZM334 67.3334C451.866 67.3334 546.35 177.067 587.35 233.867C546.133 290.6 451.066 400.667 334 400.667C216.133 400.667 121.65 290.933 80.6498 234.133C121.866 177.4 216.933 67.3334 334 67.3334Z" fill="white"/>
<path d="M334 367.333C407.633 367.333 467.333 307.633 467.333 234C467.333 160.367 407.633 100.667 334 100.667C260.366 100.667 200.667 160.367 200.667 234C200.667 307.633 260.366 367.333 334 367.333ZM334 167.333C370.766 167.333 400.666 197.233 400.666 234C400.666 270.767 370.766 300.667 334 300.667C297.233 300.667 267.333 270.767 267.333 234C267.333 197.233 297.233 167.333 334 167.333Z" fill="white"/>
</svg>
