<svg width="800" height="512" viewBox="0 0 800 512" fill="none" xmlns="http://www.w3.org/2000/svg">
<path d="M0 176.13V335.875C0 369.031 26.8938 395.933 60.0656 395.933H171.913V116.072H60.0656C26.8938 116.072 0 142.958 0 176.13Z" fill="white"/>
<path d="M450.052 3.99377C444.002 0.271898 436.464 -0.0187361 430.139 3.18595L207.894 116.07V395.933L430.139 508.817C436.464 512.022 444.002 511.717 450.052 508.009C456.102 504.302 459.78 497.725 459.78 490.63V21.3735C459.78 14.2781 456.102 7.70159 450.052 3.99377Z" fill="white"/>
<path d="M707.995 252.042L792.973 167.052C802.342 157.683 802.342 142.5 792.973 133.131C783.605 123.763 768.422 123.763 759.053 133.131L674.075 218.108L589.084 133.131C579.714 123.763 564.533 123.763 555.164 133.131C545.794 142.5 545.794 157.683 555.164 167.052L640.139 252.042L555.164 337.019C545.794 346.388 545.794 361.57 555.164 370.939C564.533 380.308 579.714 380.308 589.084 370.939L674.075 285.961L759.053 370.939C768.422 380.308 783.605 380.308 792.973 370.939C802.342 361.57 802.342 346.388 792.973 337.019L707.995 252.042Z" fill="white"/>
</svg>
