<svg width="800" height="498" viewBox="0 0 800 498" fill="white" xmlns="http://www.w3.org/2000/svg">
<path d="M0 171.272V326.727C0 359.012 26.175 385.192 58.4594 385.192H167.314V112.819H58.4594C26.175 112.819 0 138.986 0 171.272Z" />
<path d="M438.009 3.72814C432.122 0.118768 424.784 -0.178113 418.63 2.95626L202.331 112.82V385.194L418.63 495.058C424.786 498.177 432.122 497.88 438.009 494.272C443.891 490.663 447.477 484.247 447.477 477.356V20.6563C447.478 13.7516 443.891 7.33596 438.009 3.72814Z" />
<path d="M638.316 103.166C630.4 94.375 616.87 93.6766 608.087 101.592C599.309 109.494 598.606 123.022 606.514 131.813C636.436 165.019 651.378 206.928 651.386 249C651.378 291.088 636.438 332.994 606.522 366.184C598.606 374.963 599.311 388.505 608.087 396.42C616.864 404.32 630.4 403.623 638.308 394.847C675.561 353.517 694.206 301.184 694.191 249C694.205 196.828 675.559 144.48 638.316 103.166Z" />
<path d="M529.319 172.487C520.534 180.389 519.83 193.933 527.745 202.709C539.611 215.881 545.498 232.366 545.512 249C545.498 265.631 539.611 282.116 527.745 295.303C519.83 304.081 520.536 317.609 529.319 325.523C538.103 333.439 551.631 332.725 559.539 323.95C578.697 302.698 588.336 275.775 588.312 249C588.336 222.223 578.697 195.314 559.539 174.062C551.631 165.272 538.097 164.573 529.319 172.487Z" />
</svg>
